<svg width="25" height="24" viewBox="0 0 25 24" fill="none" xmlns="http://www.w3.org/2000/svg">
<path fill-rule="evenodd" clip-rule="evenodd" d="M4.19995 6.75C3.5096 6.75 2.94995 7.30964 2.94995 8V9.25006L21.45 9.24999V8C21.45 7.30964 20.8903 6.75 20.2 6.75H4.19995ZM22.95 8C22.95 6.48122 21.7187 5.25 20.2 5.25H4.19995C2.68117 5.25 1.44995 6.48122 1.44995 8V17C1.44995 18.5188 2.68117 19.75 4.19995 19.75H11.2C11.6142 19.75 11.95 19.4142 11.95 19C11.95 18.5858 11.6142 18.25 11.2 18.25H4.19995C3.5096 18.25 2.94995 17.6904 2.94995 17V10.7501L21.45 10.75V12C21.45 12.4142 21.7857 12.75 22.2 12.75C22.6142 12.75 22.95 12.4142 22.95 12V8ZM16.238 12.2821C16.5545 12.3778 16.7709 12.6694 16.7709 13V16.4886H17.2C17.6142 16.4886 17.95 16.8243 17.95 17.2386C17.95 17.6528 17.6142 17.9886 17.2 17.9886H16.7709V19C16.7709 19.4142 16.4351 19.75 16.0209 19.75C15.6067 19.75 15.2709 19.4142 15.2709 19V17.9886H13.2C12.9235 17.9886 12.6694 17.8364 12.5388 17.5927C12.4083 17.349 12.4224 17.0532 12.5756 16.823L15.3966 12.5845C15.5798 12.3092 15.9215 12.1864 16.238 12.2821ZM15.2709 16.4886V15.4805L14.6 16.4886H15.2709ZM4.44995 13C4.44995 12.5858 4.78574 12.25 5.19995 12.25L9.19995 12.25C9.61416 12.25 9.94995 12.5858 9.94995 13C9.94995 13.4142 9.61416 13.75 9.19995 13.75H5.19995C4.78574 13.75 4.44995 13.4142 4.44995 13ZM17.9196 14.7197C18.2125 14.4268 18.6874 14.4268 18.9803 14.7197L20.325 16.0643L21.6696 14.7197C21.9625 14.4268 22.4374 14.4268 22.7303 14.7197C23.0232 15.0126 23.0232 15.4874 22.7303 15.7803L21.3856 17.125L22.7303 18.4697C23.0232 18.7626 23.0232 19.2374 22.7303 19.5303C22.4374 19.8232 21.9625 19.8232 21.6696 19.5303L20.325 18.1856L18.9803 19.5303C18.6874 19.8232 18.2125 19.8232 17.9196 19.5303C17.6267 19.2374 17.6267 18.7626 17.9196 18.4697L19.2643 17.125L17.9196 15.7803C17.6267 15.4874 17.6267 15.0126 17.9196 14.7197ZM4.44995 16C4.44995 15.5858 4.78574 15.25 5.19995 15.25H9.19995C9.61416 15.25 9.94995 15.5858 9.94995 16C9.94995 16.4142 9.61416 16.75 9.19995 16.75H5.19995C4.78574 16.75 4.44995 16.4142 4.44995 16Z" fill="white"/>
</svg>
