<svg width="24" height="24" viewBox="0 0 24 24" fill="none" xmlns="http://www.w3.org/2000/svg">
<path d="M12 7.75C10.6995 7.75 9.75 8.70924 9.75 9.76828C9.75 10.1825 9.41421 10.5183 9 10.5183C8.58579 10.5183 8.25 10.1825 8.25 9.76828C8.25 7.76956 9.98684 6.25 12 6.25C14.0132 6.25 15.75 7.76956 15.75 9.76828C15.75 11.3301 14.6737 12.6895 13.2251 13.1855C13.0686 13.239 12.9361 13.3268 12.8516 13.4204C12.7709 13.5096 12.75 13.583 12.75 13.6391V13.7669C12.75 14.1811 12.4142 14.5169 12 14.5169C11.5858 14.5169 11.25 14.1811 11.25 13.7669V13.6391C11.25 12.6371 12.0569 11.9999 12.7393 11.7663C13.6396 11.4581 14.25 10.6293 14.25 9.76828C14.25 8.70924 13.3005 7.75 12 7.75Z" fill="white"/>
<path d="M11.9925 17C12.4057 17 12.7406 16.6642 12.7406 16.25C12.7406 15.8358 12.4057 15.5 11.9925 15.5C11.5793 15.5 11.2444 15.8358 11.2444 16.25C11.2444 16.6642 11.5793 17 11.9925 17Z" fill="white"/>
<path fill-rule="evenodd" clip-rule="evenodd" d="M12 2.25C6.61522 2.25 2.25 6.61522 2.25 12C2.25 17.3848 6.61522 21.75 12 21.75C17.3848 21.75 21.75 17.3848 21.75 12C21.75 6.61522 17.3848 2.25 12 2.25ZM3.75 12C3.75 7.44365 7.44365 3.75 12 3.75C16.5563 3.75 20.25 7.44365 20.25 12C20.25 16.5563 16.5563 20.25 12 20.25C7.44365 20.25 3.75 16.5563 3.75 12Z" fill="white"/>
</svg>
