<svg width="25" height="24" viewBox="0 0 25 24" fill="none" xmlns="http://www.w3.org/2000/svg">
<path fill-rule="evenodd" clip-rule="evenodd" d="M12.6 1.25C13.0142 1.25 13.35 1.58579 13.35 2V3.25H14.1C14.5142 3.25 14.85 3.58579 14.85 4C14.85 4.32302 14.6458 4.59834 14.3594 4.70392C14.3985 6.1622 14.5601 7.68131 14.8695 9.25H15.6C16.0142 9.25 16.35 9.58579 16.35 10C16.35 10.4142 16.0142 10.75 15.6 10.75H15.2073C15.5783 12.2143 16.0798 13.7172 16.7311 15.25H17.6C18.0142 15.25 18.35 15.5858 18.35 16C18.35 16.4142 18.0142 16.75 17.6 16.75H17.4125C18.1774 18.3313 19.1046 19.9409 20.2143 21.5696C20.2587 21.6329 20.2936 21.7033 20.3169 21.7789C20.3445 21.8684 20.3546 21.9611 20.3482 22.0523C20.3337 22.2571 20.2357 22.4541 20.0645 22.5889C19.9928 22.6455 19.9105 22.6893 19.8211 22.7169C19.7455 22.7402 19.6676 22.7511 19.5902 22.75H15.7C15.6832 22.75 15.6665 22.7494 15.65 22.7484C15.6335 22.7494 15.6168 22.75 15.6 22.75C15.1858 22.75 14.85 22.4142 14.85 22C14.85 20.7574 13.8426 19.75 12.6 19.75C11.3573 19.75 10.35 20.7574 10.35 22C10.35 22.4142 10.0142 22.75 9.59999 22.75H5.60975C5.53239 22.7511 5.45447 22.7402 5.37888 22.7169C5.28938 22.6893 5.20703 22.6454 5.13529 22.5887C5.0509 22.5223 4.98432 22.4407 4.93676 22.3505C4.84491 22.1763 4.82406 21.9701 4.88311 21.7789C4.90639 21.7033 4.94129 21.6329 4.98573 21.5696C6.09543 19.9409 7.02255 18.3313 7.78752 16.75H7.59999C7.18577 16.75 6.84999 16.4142 6.84999 16C6.84999 15.5858 7.18577 15.25 7.59999 15.25H8.46887C9.12017 13.7172 9.62167 12.2143 9.99265 10.75H9.59999C9.18577 10.75 8.84999 10.4142 8.84999 10C8.84999 9.58579 9.18577 9.25 9.59999 9.25H10.3305C10.6399 7.68131 10.8015 6.1622 10.8405 4.70391C10.5542 4.59834 10.35 4.32302 10.35 4C10.35 3.58579 10.6858 3.25 11.1 3.25H11.85V2C11.85 1.58579 12.1858 1.25 12.6 1.25ZM15.7543 16.75C16.4341 18.2308 17.2475 19.7332 18.2091 21.25H16.275C15.9275 19.5383 14.4142 18.25 12.6 18.25C10.7858 18.25 9.27245 19.5383 8.925 21.25H6.99087C7.95249 19.7332 8.76591 18.2308 9.4457 16.75L15.7543 16.75ZM14.6406 15.25H15.1077C14.4914 13.7212 14.0151 12.2185 13.6623 10.75L11.5376 10.75C11.1849 12.2185 10.7086 13.7212 10.0923 15.25H10.5594L11.2304 13.2372C11.4269 12.6476 11.9786 12.25 12.6 12.25C13.2214 12.25 13.7731 12.6476 13.9696 13.2372L14.6406 15.25ZM12.1406 15.25H13.0594L12.6 13.8717L12.1406 15.25ZM12.3399 4.75H12.8601C12.8993 6.20106 13.0532 7.70437 13.342 9.25H11.8579C12.1468 7.70437 12.3007 6.20106 12.3399 4.75Z" fill="white"/>
</svg>
