<svg width="16" height="16" viewBox="0 0 16 16" fill="none" xmlns="http://www.w3.org/2000/svg">
<path fill-rule="evenodd" clip-rule="evenodd" d="M2.11852 6.50661C1.99759 6.98435 1.93333 7.48467 1.93333 8C1.93333 8.75576 2.07153 9.47925 2.32403 10.1466H5.05996C4.96878 9.46893 4.91997 8.747 4.91997 8C4.91997 7.48838 4.94287 6.98853 4.98659 6.50661L2.11852 6.50661ZM2.43816 5.57328L5.10045 5.57328C5.23775 4.68548 5.44898 3.88143 5.71879 3.20692C5.86784 2.83431 6.03803 2.49299 6.2291 2.19587C4.5271 2.71452 3.14249 3.96128 2.43816 5.57328ZM8 1C4.13401 1 1 4.13401 1 8C1 11.866 4.13401 15 8 15C11.866 15 15 11.866 15 8C15 4.13401 11.866 1 8 1ZM8 1.93333C7.80884 1.93333 7.57951 2.02827 7.32183 2.30074C7.06321 2.5742 6.80882 2.99494 6.58537 3.55355C6.35864 4.12036 6.1732 4.8054 6.04569 5.57328L9.95427 5.57328C9.82676 4.8054 9.64132 4.12036 9.4146 3.55355C9.19116 2.99494 8.93677 2.57419 8.67816 2.30074C8.42049 2.02827 8.19116 1.93333 8 1.93333ZM10.8995 5.57328C10.7622 4.68548 10.551 3.88143 10.2812 3.20692C10.1321 2.83431 9.96195 2.49298 9.77088 2.19587C11.4729 2.71451 12.8575 3.96127 13.5618 5.57328L10.8995 5.57328ZM10.076 6.50661L5.92399 6.50661C5.87793 6.9837 5.85331 7.48376 5.85331 8C5.85331 8.75752 5.90633 9.4802 6.00228 10.1466L9.99767 10.1466C10.0936 9.4802 10.1466 8.75752 10.1466 8C10.1466 7.48376 10.122 6.9837 10.076 6.50661ZM10.94 10.1466C11.0312 9.46893 11.08 8.747 11.08 8C11.08 7.48838 11.0571 6.98853 11.0134 6.50661L13.88 6.50661V6.50077C14.0019 6.98027 14.0667 7.48257 14.0667 8C14.0667 8.75576 13.9285 9.47925 13.676 10.1466H10.94ZM9.82759 11.0799L6.17237 11.0799C6.28549 11.5861 6.42512 12.0458 6.58537 12.4464C6.80882 13.0051 7.06321 13.4258 7.32183 13.6993C7.57951 13.9717 7.80884 14.0667 8 14.0667C8.19116 14.0667 8.42049 13.9717 8.67816 13.6993C8.93677 13.4258 9.19116 13.0051 9.4146 12.4465C9.57485 12.0458 9.71447 11.5861 9.82759 11.0799ZM9.77088 13.8041C9.96195 13.507 10.1321 13.1657 10.2812 12.7931C10.4831 12.2882 10.6523 11.7107 10.7821 11.0799H13.2278C12.4645 12.3728 11.2351 13.3579 9.77088 13.8041ZM6.2291 13.8041C6.03803 13.507 5.86784 13.1657 5.71879 12.7931C5.51684 12.2882 5.3477 11.7107 5.21782 11.0799H2.77216C3.53552 12.3728 4.76485 13.3579 6.2291 13.8041Z" fill="white"/>
</svg>
