<svg width="24" height="24" viewBox="0 0 24 24" fill="none" xmlns="http://www.w3.org/2000/svg">
<path fill-rule="evenodd" clip-rule="evenodd" d="M5.7941 8.36296C6.01611 8.28966 6.25343 8.25 6.5 8.25H7.5C8.74264 8.25 9.75 9.25736 9.75 10.5V14.5C9.75 15.7426 8.74264 16.75 7.5 16.75H6.5C5.70817 16.75 5.01189 16.341 4.61089 15.7227C3.27638 15.5337 2.25 14.3867 2.25 13V12C2.25 10.7412 3.09575 9.67998 4.25 9.35352V9.125C4.25 4.78833 7.70733 1.25 12 1.25C16.2927 1.25 19.75 4.78833 19.75 9.125V9.35352C20.9043 9.67998 21.75 10.7412 21.75 12V13C21.75 14.2588 20.9043 15.32 19.75 15.6465V18.5C19.75 19.7301 18.7669 20.75 17.5263 20.75H14.6046C14.3079 21.483 13.5893 22 12.75 22H11.25C10.1454 22 9.25 21.1046 9.25 20C9.25 18.8954 10.1454 18 11.25 18H12.75C13.5893 18 14.3079 18.517 14.6046 19.25H17.5263C17.9135 19.25 18.25 18.9268 18.25 18.5V16.622C18.0154 16.7049 17.763 16.75 17.5 16.75H16.5C15.2574 16.75 14.25 15.7426 14.25 14.5V10.5C14.25 9.25736 15.2574 8.25 16.5 8.25H17.5C17.7466 8.25 17.9839 8.28967 18.2059 8.36296C17.8362 5.19182 15.1882 2.75 12 2.75C8.81179 2.75 6.16378 5.19182 5.7941 8.36296ZM19.75 10.9999V14.0001C20.0536 13.772 20.25 13.409 20.25 13V12C20.25 11.591 20.0536 11.228 19.75 10.9999ZM18.25 14.5V10.5C18.25 10.0858 17.9142 9.75 17.5 9.75H16.5C16.0858 9.75 15.75 10.0858 15.75 10.5V14.5C15.75 14.9142 16.0858 15.25 16.5 15.25H17.5C17.9142 15.25 18.25 14.9142 18.25 14.5ZM4.25 10.9999C3.94639 11.228 3.75 11.591 3.75 12V13C3.75 13.409 3.94639 13.772 4.25 14.0001V10.9999ZM5.75 14.5C5.75 14.9142 6.08579 15.25 6.5 15.25H7.5C7.91421 15.25 8.25 14.9142 8.25 14.5V10.5C8.25 10.0858 7.91421 9.75 7.5 9.75H6.5C6.08579 9.75 5.75 10.0858 5.75 10.5V14.5ZM11.25 19.5C10.9739 19.5 10.75 19.7239 10.75 20C10.75 20.2761 10.9739 20.5 11.25 20.5H12.75C13.0261 20.5 13.25 20.2761 13.25 20C13.25 19.7239 13.0261 19.5 12.75 19.5H11.25Z" fill="white"/>
</svg>
