<svg width="16" height="16" viewBox="0 0 16 16" fill="none" xmlns="http://www.w3.org/2000/svg">
<path fill-rule="evenodd" clip-rule="evenodd" d="M8.55353 2.49411C8.23782 2.21355 7.76215 2.21355 7.44644 2.49411L3.16665 6.29728V11.3333C3.16665 11.7935 3.53975 12.1666 3.99999 12.1666H5.49999V8.66664C5.49999 7.65412 6.3208 6.83331 7.33332 6.83331H8.66665C9.67917 6.83331 10.5 7.65412 10.5 8.66664V12.1666H12C12.4602 12.1666 12.8333 11.7935 12.8333 11.3333V6.29728L8.55353 2.49411ZM13.8333 7.18591L14.3345 7.6313C14.5409 7.81473 14.857 7.7961 15.0404 7.58968C15.2238 7.38326 15.2052 7.06723 14.9988 6.8838L9.21779 1.7466C8.52323 1.12939 7.47674 1.12939 6.78218 1.7466L1.00119 6.8838C0.794772 7.06723 0.776137 7.38326 0.959567 7.58968C1.143 7.7961 1.45903 7.81473 1.66545 7.6313L2.16665 7.18591V11.3333C2.16665 12.3458 2.98746 13.1666 3.99999 13.1666H12C13.0125 13.1666 13.8333 12.3458 13.8333 11.3333V7.18591ZM9.49998 12.1666V8.66664C9.49998 8.2064 9.12689 7.83331 8.66665 7.83331H7.33332C6.87308 7.83331 6.49998 8.2064 6.49998 8.66664V12.1666H9.49998Z" fill="#737373"/>
</svg>
