<svg width="24" height="24" viewBox="0 0 24 24" fill="none" xmlns="http://www.w3.org/2000/svg">
<path fill-rule="evenodd" clip-rule="evenodd" d="M9.92308 3.75C8.28588 3.75 6.71573 4.40038 5.55805 5.55805C4.40038 6.71573 3.75 8.28588 3.75 9.92308C3.75 11.5603 4.40038 13.1304 5.55805 14.2881C6.71573 15.4458 8.28588 16.0962 9.92308 16.0962C11.5603 16.0962 13.1304 15.4458 14.2881 14.2881C15.4458 13.1304 16.0962 11.5603 16.0962 9.92308C16.0962 8.28587 15.4458 6.71573 14.2881 5.55805C13.1304 4.40038 11.5603 3.75 9.92308 3.75ZM4.49739 4.49739C5.93637 3.05841 7.88805 2.25 9.92308 2.25C11.9581 2.25 13.9098 3.05841 15.3488 4.49739C16.7877 5.93637 17.5962 7.88805 17.5962 9.92308C17.5962 11.7066 16.9752 13.426 15.8531 14.7925L21.5303 20.4697C21.8232 20.7626 21.8232 21.2374 21.5303 21.5303C21.2374 21.8232 20.7626 21.8232 20.4697 21.5303L14.7925 15.8531C13.426 16.9752 11.7066 17.5962 9.92308 17.5962C7.88805 17.5962 5.93637 16.7877 4.49739 15.3488C3.05841 13.9098 2.25 11.9581 2.25 9.92308C2.25 7.88805 3.05841 5.93637 4.49739 4.49739Z" fill="#0B0B0C"/>
</svg>
