<svg width="40" height="40" viewBox="0 0 40 40" fill="none" xmlns="http://www.w3.org/2000/svg">
<path d="M16 16.25C16.4142 16.25 16.75 16.5858 16.75 17C16.75 17.5394 17.0398 18.085 17.6216 18.5213C18.2036 18.9578 19.042 19.25 20 19.25C20.958 19.25 21.7964 18.9578 22.3784 18.5213C22.9602 18.085 23.25 17.5394 23.25 17C23.25 16.5858 23.5858 16.25 24 16.25C24.4142 16.25 24.75 16.5858 24.75 17C24.75 18.1174 24.1444 19.0719 23.2784 19.7213C22.4127 20.3706 21.2512 20.75 20 20.75C18.7488 20.75 17.5873 20.3706 16.7216 19.7213C15.8556 19.0719 15.25 18.1174 15.25 17C15.25 16.5858 15.5858 16.25 16 16.25Z" fill="white"/>
<path fill-rule="evenodd" clip-rule="evenodd" d="M14.3188 13.25C14.7607 10.8788 17.2686 9.25 20 9.25C22.7314 9.25 25.2393 10.8788 25.6812 13.25H26C27.5188 13.25 28.75 14.4812 28.75 16V28C28.75 29.5188 27.5188 30.75 26 30.75H14C12.4812 30.75 11.25 29.5188 11.25 28V16C11.25 14.4812 12.4812 13.25 14 13.25H14.3188ZM15.8694 13.25C16.3019 11.8983 17.8737 10.75 20 10.75C22.1263 10.75 23.6981 11.8983 24.1306 13.25H15.8694ZM14 14.75C13.3096 14.75 12.75 15.3096 12.75 16V28C12.75 28.6904 13.3096 29.25 14 29.25H26C26.6904 29.25 27.25 28.6904 27.25 28V16C27.25 15.3096 26.6904 14.75 26 14.75H14Z" fill="white"/>
<g clip-path="url(#clip0_134_597)">
<rect x="23" y="3" width="14" height="14" rx="7" fill="#E80206"/>
<path d="M27.4376 11.876C28.5096 11.076 29.3576 10.352 29.9816 9.704C30.6056 9.048 30.9176 8.436 30.9176 7.868C30.9176 7.676 30.8736 7.528 30.7856 7.424C30.7056 7.32 30.5976 7.268 30.4616 7.268C30.3016 7.268 30.1736 7.352 30.0776 7.52C29.9896 7.68 29.9576 7.928 29.9816 8.264H27.4016C27.4256 7.52 27.5856 6.908 27.8816 6.428C28.1856 5.948 28.5776 5.596 29.0576 5.372C29.5376 5.148 30.0656 5.036 30.6416 5.036C31.6656 5.036 32.4136 5.284 32.8856 5.78C33.3656 6.268 33.6056 6.896 33.6056 7.664C33.6056 8.472 33.3456 9.232 32.8256 9.944C32.3136 10.648 31.6696 11.244 30.8936 11.732H33.6416V13.88H27.4376V11.876Z" fill="white"/>
</g>
<defs>
<clipPath id="clip0_134_597">
<rect x="23" y="3" width="14" height="14" rx="7" fill="white"/>
</clipPath>
</defs>
</svg>
