<svg width="25" height="24" viewBox="0 0 25 24" fill="none" xmlns="http://www.w3.org/2000/svg">
<path fill-rule="evenodd" clip-rule="evenodd" d="M16.9 2.75C15.9335 2.75 15.15 3.5335 15.15 4.5C15.15 5.4665 15.9335 6.25 16.9 6.25C17.8665 6.25 18.65 5.4665 18.65 4.5C18.65 3.5335 17.8665 2.75 16.9 2.75ZM13.65 4.5C13.65 2.70507 15.1051 1.25 16.9 1.25C18.6949 1.25 20.15 2.70507 20.15 4.5C20.15 6.29493 18.6949 7.75 16.9 7.75C15.1051 7.75 13.65 6.29493 13.65 4.5ZM16.9 10.75C16.01 10.75 15.1981 10.9993 14.5501 11.4099C14.2002 11.6316 13.7368 11.5276 13.5151 11.1777C13.2935 10.8278 13.3974 10.3645 13.7473 10.1428C14.6396 9.57739 15.7307 9.25 16.9 9.25C19.3382 9.25 21.4921 10.6898 22.1186 12.7852C22.2372 13.182 22.0117 13.5999 21.6148 13.7186C21.218 13.8372 20.8001 13.6117 20.6814 13.2148C20.2763 11.8597 18.7918 10.75 16.9 10.75ZM3.9 11.75C3.48578 11.75 3.14999 12.0858 3.14999 12.5V16.5C3.14999 16.9142 3.48578 17.25 3.89999 17.25C4.31421 17.25 4.64999 16.9142 4.64999 16.5V12.5C4.64999 12.0858 4.31421 11.75 3.9 11.75ZM5.7711 11.25C5.36747 10.647 4.6801 10.25 3.90001 10.25C2.65736 10.25 1.64999 11.2574 1.64999 12.5V16.5C1.64999 17.7426 2.65735 18.75 3.89999 18.75C4.65717 18.75 5.32699 18.376 5.73479 17.8026H6.20811C7.23201 17.8026 8.2393 18.0615 9.13635 18.5551L12.4151 20.3593C12.9036 20.6281 13.4638 20.7381 14.0177 20.6739L21.4026 19.818C22.3986 19.7026 23.15 18.859 23.15 17.8563C23.15 16.7657 22.2659 15.8816 21.1752 15.8816H16.382C16.3806 15.2803 16.1089 14.6818 15.5768 14.2883L12.0552 11.6834C11.6746 11.4019 11.2137 11.25 10.7403 11.25H5.7711ZM6.14999 12.75V16.3026H6.20811C7.48487 16.3026 8.74091 16.6254 9.8595 17.2409L13.1382 19.0451C13.3537 19.1637 13.6007 19.2122 13.845 19.1839L21.2299 18.328C21.4693 18.3002 21.65 18.0974 21.65 17.8563C21.65 17.5941 21.4374 17.3816 21.1752 17.3816H15.702C15.0067 17.9889 13.9821 18.0376 13.2316 17.4948L10.5495 15.5551L11.4286 14.3396L14.1106 16.2794C14.2966 16.4139 14.5515 16.4 14.7218 16.246C14.9497 16.04 14.9318 15.6769 14.6848 15.4942L11.1632 12.8894C11.0407 12.7989 10.8925 12.75 10.7403 12.75H6.14999Z" fill="white"/>
</svg>
