<svg width="25" height="24" viewBox="0 0 25 24" fill="none" xmlns="http://www.w3.org/2000/svg">
<path fill-rule="evenodd" clip-rule="evenodd" d="M19.3 16.25C18.8858 16.25 18.55 16.5858 18.55 17C18.55 17.4142 18.8858 17.75 19.3 17.75C19.7142 17.75 20.05 17.4142 20.05 17C20.05 16.5858 19.7142 16.25 19.3 16.25ZM17.05 17C17.05 15.7574 18.0573 14.75 19.3 14.75C20.5426 14.75 21.55 15.7574 21.55 17C21.55 18.2426 20.5426 19.25 19.3 19.25C18.0573 19.25 17.05 18.2426 17.05 17Z" fill="white"/>
<path fill-rule="evenodd" clip-rule="evenodd" d="M4.04999 7C4.04999 6.58579 4.38577 6.25 4.79999 6.25L8.79999 6.25C9.2142 6.25 9.54999 6.58579 9.54999 7C9.54999 7.41421 9.2142 7.75 8.79999 7.75L4.79999 7.75C4.38577 7.75 4.04999 7.41421 4.04999 7Z" fill="white"/>
<path fill-rule="evenodd" clip-rule="evenodd" d="M3.04999 9C3.04999 8.58579 3.38577 8.25 3.79999 8.25L10.8 8.25C11.2142 8.25 11.55 8.58579 11.55 9C11.55 9.41421 11.2142 9.75 10.8 9.75L3.79999 9.75C3.38577 9.75 3.04999 9.41421 3.04999 9Z" fill="white"/>
<path fill-rule="evenodd" clip-rule="evenodd" d="M2.04999 11C2.04999 10.5858 2.38577 10.25 2.79999 10.25L6.79999 10.25C7.2142 10.25 7.54999 10.5858 7.54999 11C7.54999 11.4142 7.2142 11.75 6.79999 11.75L2.79999 11.75C2.38577 11.75 2.04999 11.4142 2.04999 11Z" fill="white"/>
<path fill-rule="evenodd" clip-rule="evenodd" d="M8.29999 16.25C7.88577 16.25 7.54999 16.5858 7.54999 17C7.54999 17.4142 7.88577 17.75 8.29999 17.75C8.7142 17.75 9.04999 17.4142 9.04999 17C9.04999 16.5858 8.7142 16.25 8.29999 16.25ZM6.04999 17C6.04999 15.7574 7.05735 14.75 8.29999 14.75C9.54263 14.75 10.55 15.7574 10.55 17C10.55 18.2426 9.54263 19.25 8.29999 19.25C7.05735 19.25 6.04999 18.2426 6.04999 17Z" fill="white"/>
<path fill-rule="evenodd" clip-rule="evenodd" d="M5.90713 5C5.90713 4.58579 6.24292 4.25 6.65713 4.25H16.1008C17.4542 4.25 18.5013 5.43616 18.3334 6.77908L16.9621 17.75H9.79999C9.38577 17.75 9.04999 17.4142 9.04999 17C9.04999 16.5858 9.38577 16.25 9.79999 16.25H15.6379L16.845 6.59303C16.901 6.14539 16.5519 5.75 16.1008 5.75H6.65713C6.24292 5.75 5.90713 5.41421 5.90713 5ZM5.53374 12.2588C5.94308 12.3222 6.22356 12.7054 6.16021 13.1147L5.80881 15.3853C5.73847 15.8398 6.09005 16.25 6.54999 16.25H6.65713C7.07134 16.25 7.40713 16.5858 7.40713 17C7.40713 17.4142 7.07134 17.75 6.65713 17.75H6.54999C5.17018 17.75 4.11543 16.5195 4.32646 15.1559L4.67786 12.8853C4.74121 12.476 5.1244 12.1955 5.53374 12.2588Z" fill="white"/>
<path fill-rule="evenodd" clip-rule="evenodd" d="M16.6379 8.25H18.4888C21.2521 8.25 23.4321 10.5997 23.2255 13.3553L23.0489 15.7099C22.9626 16.8605 22.0038 17.75 20.85 17.75V16.25C21.2189 16.25 21.5255 15.9656 21.5531 15.5977L21.7297 13.2431C21.8711 11.3577 20.3794 9.75 18.4888 9.75H17.9621L17.1496 16.25H18.15V17.75H15.4504L16.6379 8.25Z" fill="white"/>
</svg>
