<svg width="24" height="24" viewBox="0 0 24 24" fill="none" xmlns="http://www.w3.org/2000/svg">
<path fill-rule="evenodd" clip-rule="evenodd" d="M12 3.75C9.92893 3.75 8.25 5.42893 8.25 7.5C8.25 9.57107 9.92893 11.25 12 11.25C14.0711 11.25 15.75 9.57107 15.75 7.5C15.75 5.42893 14.0711 3.75 12 3.75ZM6.75 7.5C6.75 4.6005 9.1005 2.25 12 2.25C14.8995 2.25 17.25 4.6005 17.25 7.5C17.25 10.3995 14.8995 12.75 12 12.75C9.1005 12.75 6.75 10.3995 6.75 7.5ZM12 15.75C8.48477 15.75 5.55287 18.0769 4.72484 21.1926C4.61846 21.5929 4.20769 21.8312 3.80737 21.7248C3.40705 21.6185 3.16878 21.2077 3.27516 20.8074C4.28108 17.0222 7.81736 14.25 12 14.25C16.1826 14.25 19.7189 17.0222 20.7248 20.8074C20.8312 21.2077 20.593 21.6185 20.1926 21.7248C19.7923 21.8312 19.3815 21.5929 19.2752 21.1926C18.4471 18.0769 15.5152 15.75 12 15.75Z" fill="white"/>
</svg>
