<svg width="145" height="25" viewBox="0 0 145 25" fill="none" xmlns="http://www.w3.org/2000/svg">
<path d="M39.1061 7.77814C37.2857 5.96445 34.7749 4.83871 32.013 4.83871C26.4892 4.83871 21.9697 9.34166 21.9697 14.8453C21.9697 17.5971 23.0996 20.0987 24.9199 21.9124C26.7403 23.7261 29.2511 24.8518 32.013 24.8518C34.7749 24.8518 37.2857 23.7261 39.1061 21.9124C40.9264 20.0987 42.0563 17.5971 42.0563 14.8453C42.0563 12.0935 40.9264 9.59183 39.1061 7.77814ZM32.013 22.3502C27.8639 22.3502 24.4805 18.9855 24.4805 14.8453C24.4805 10.7051 27.8639 7.34035 32.013 7.34035C36.1621 7.34035 39.5455 10.7051 39.5455 14.8453C39.5455 18.9855 36.1684 22.3502 32.013 22.3502Z" fill="white"/>
<path d="M83.0455 7.77814C81.2251 5.96445 78.7143 4.83871 75.9524 4.83871C70.4286 4.83871 65.9091 9.34166 65.9091 14.8453C65.9091 17.5971 67.039 20.0987 68.8593 21.9124C70.6796 23.7261 73.1905 24.8518 75.9524 24.8518C78.7143 24.8518 81.2251 23.7261 83.0455 21.9124C84.8658 20.0987 85.9957 17.5971 85.9957 14.8453C85.9957 12.0935 84.8658 9.59183 83.0455 7.77814ZM75.9524 22.3502C71.8032 22.3502 68.4199 18.9855 68.4199 14.8453C68.4199 10.7051 71.8032 7.34035 75.9524 7.34035C80.1015 7.34035 83.4848 10.7051 83.4848 14.8453C83.4848 18.9855 80.1078 22.3502 75.9524 22.3502Z" fill="white"/>
<path d="M128.052 4.83871H125.541V24.8518H128.052V4.83871Z" fill="white"/>
<path d="M128.052 1.39895C128.052 0.708144 127.49 0.148132 126.797 0.148132C126.103 0.148132 125.541 0.708144 125.541 1.39895C125.541 2.08976 126.103 2.64977 126.797 2.64977C127.49 2.64977 128.052 2.08976 128.052 1.39895Z" fill="white"/>
<path d="M10.5141 4.83246C7.16212 4.83246 4.21818 6.62738 2.51082 9.35417V0.148134H0V24.8518H2.51082V20.3239C4.21818 23.0444 7.16212 24.8456 10.5141 24.8456C15.8056 24.8456 20.0866 20.3614 20.0866 14.839C20.0866 9.31665 15.8056 4.83246 10.5141 4.83246ZM10.0119 22.3439C5.86905 22.3439 2.51082 18.9792 2.51082 14.839C2.51082 10.6988 5.86905 7.3341 10.0119 7.3341C14.1548 7.3341 17.513 10.6925 17.513 14.839C17.513 18.9855 14.1548 22.3439 10.0119 22.3439Z" fill="white"/>
<path d="M54.4535 4.83246C51.1015 4.83246 48.1576 6.62738 46.4502 9.35417V0.148134H43.9394V24.8518H46.4502V20.3239C48.1576 23.0444 51.1015 24.8456 54.4535 24.8456C59.745 24.8456 64.026 20.3614 64.026 14.839C64.026 9.31665 59.745 4.83246 54.4535 4.83246ZM53.9513 22.3439C49.8084 22.3439 46.4502 18.9792 46.4502 14.839C46.4502 10.6988 49.8084 7.3341 53.9513 7.3341C58.0942 7.3341 61.4524 10.6925 61.4524 14.839C61.4524 18.9855 58.0942 22.3439 53.9513 22.3439Z" fill="white"/>
<path fill-rule="evenodd" clip-rule="evenodd" d="M122.403 12.969V24.8518H119.892V13.5945C119.892 11.8683 119.189 10.3048 118.053 9.1728C116.916 8.04081 115.347 7.34035 113.615 7.34035C110.15 7.34035 107.338 10.1422 107.338 13.5945V24.8518H104.827V0.148134H107.338V8.6412C108.781 6.35846 111.33 4.83871 114.242 4.83871C116.496 4.83871 118.536 5.74555 120.011 7.22152C121.486 8.69124 122.403 10.7238 122.403 12.969Z" fill="white"/>
<path d="M141.234 7.34035C142.602 7.34035 143.889 7.70309 145 8.34726V5.57669C143.839 5.10138 142.564 4.83871 141.234 4.83871C135.71 4.83871 131.19 9.34166 131.19 14.8453C131.19 17.5971 132.32 20.0987 134.141 21.9124C135.961 23.7261 138.472 24.8518 141.234 24.8518C142.564 24.8518 143.839 24.5892 145 24.1139V21.3433C143.889 21.9875 142.602 22.3502 141.234 22.3502C137.078 22.3502 133.701 18.9855 133.701 14.8453C133.701 10.7051 137.078 7.34035 141.234 7.34035Z" fill="white"/>
<path d="M97.9221 7.34035C99.2905 7.34035 100.577 7.70309 101.688 8.34726V5.57669C100.527 5.10138 99.2528 4.83871 97.9221 4.83871C92.3983 4.83871 87.8788 9.34166 87.8788 14.8453C87.8788 17.5971 89.0087 20.0987 90.829 21.9124C92.6494 23.7261 95.1602 24.8518 97.9221 24.8518C99.2528 24.8518 100.527 24.5892 101.688 24.1139V21.3433C100.577 21.9875 99.2905 22.3502 97.9221 22.3502C93.7667 22.3502 90.3896 18.9855 90.3896 14.8453C90.3896 10.7051 93.7667 7.34035 97.9221 7.34035Z" fill="white"/>
</svg>
